<?xml version="1.0" encoding="UTF-8" standalone="no"?>
<!DOCTYPE svg PUBLIC "-//W3C//DTD SVG 1.1//EN"
 "http://www.w3.org/Graphics/SVG/1.1/DTD/svg11.dtd">
<!-- Generated by graphviz version 12.1.0 (20240811.2233)
 -->
<!-- Title: pastafarianism Pages: 1 -->
<svg width="789pt" height="1032pt"
 viewBox="0.00 0.00 788.56 1032.01" xmlns="http://www.w3.org/2000/svg" xmlns:xlink="http://www.w3.org/1999/xlink">
<g id="graph0" class="graph" transform="scale(1 1) rotate(0) translate(4 1028.01)">
<title>pastafarianism</title>
<polygon fill="white" stroke="none" points="-4,4 -4,-1028.01 784.56,-1028.01 784.56,4 -4,4"/>
<!-- 9c58433c&#45;77f5&#45;4046&#45;9198&#45;c328bc09a70e -->
<g id="node1" class="node">
<title>9c58433c&#45;77f5&#45;4046&#45;9198&#45;c328bc09a70e</title>
<polygon fill="#b0ffff" stroke="black" points="294.81,-1024.01 259.31,-1024.01 259.31,-993.51 294.81,-993.51 294.81,-1024.01"/>
<text text-anchor="middle" x="277.06" y="-1001.01" font-family="Times New Roman,serif" font-size="20.00"> ? </text>
</g>
<!-- 38c63797&#45;b945&#45;43ec&#45;a1f4&#45;85e758b8f3cb -->
<g id="node2" class="node">
<title>38c63797&#45;b945&#45;43ec&#45;a1f4&#45;85e758b8f3cb</title>
<ellipse fill="#ffff80" stroke="black" cx="173.06" cy="-888.21" rx="173.06" ry="69.3"/>
<text text-anchor="middle" x="173.06" y="-914.21" font-family="Times New Roman,serif" font-size="20.00">CanGoTo(ball&#45;0) &amp;</text>
<text text-anchor="middle" x="173.06" y="-891.71" font-family="Times New Roman,serif" font-size="20.00"> IsHandEmpty(agent&#45;1) &amp;</text>
<text text-anchor="middle" x="173.06" y="-869.21" font-family="Times New Roman,serif" font-size="20.00"> IsInRoom(ball&#45;0,room&#45;1) &amp;</text>
<text text-anchor="middle" x="173.06" y="-846.71" font-family="Times New Roman,serif" font-size="20.00"> IsNear(agent&#45;1,ball&#45;0)</text>
</g>
<!-- 9c58433c&#45;77f5&#45;4046&#45;9198&#45;c328bc09a70e&#45;&gt;38c63797&#45;b945&#45;43ec&#45;a1f4&#45;85e758b8f3cb -->
<g id="edge1" class="edge">
<title>9c58433c&#45;77f5&#45;4046&#45;9198&#45;c328bc09a70e&#45;&gt;38c63797&#45;b945&#45;43ec&#45;a1f4&#45;85e758b8f3cb</title>
<path fill="none" stroke="black" d="M264.31,-993.22C257.15,-985.06 247.62,-974.2 237.42,-962.57"/>
<polygon fill="black" stroke="black" points="240.12,-960.34 230.89,-955.13 234.86,-964.95 240.12,-960.34"/>
</g>
<!-- 221151f8&#45;3b18&#45;4503&#45;8668&#45;e52b1096c6e0 -->
<g id="node3" class="node">
<title>221151f8&#45;3b18&#45;4503&#45;8668&#45;e52b1096c6e0</title>
<polygon fill="#ff8080" stroke="black" points="400.19,-903.46 363.94,-903.46 363.94,-872.96 400.19,-872.96 400.19,-903.46"/>
<text text-anchor="middle" x="382.06" y="-880.46" font-family="Times New Roman,serif" font-size="20.00">→</text>
</g>
<!-- 9c58433c&#45;77f5&#45;4046&#45;9198&#45;c328bc09a70e&#45;&gt;221151f8&#45;3b18&#45;4503&#45;8668&#45;e52b1096c6e0 -->
<g id="edge2" class="edge">
<title>9c58433c&#45;77f5&#45;4046&#45;9198&#45;c328bc09a70e&#45;&gt;221151f8&#45;3b18&#45;4503&#45;8668&#45;e52b1096c6e0</title>
<path fill="none" stroke="black" d="M295.17,-1000.1C312.66,-991.89 338.81,-977.3 355.06,-957.51 365.24,-945.11 371.94,-928.41 376.11,-914.62"/>
<polygon fill="black" stroke="black" points="379.39,-915.92 378.65,-905.35 372.64,-914.07 379.39,-915.92"/>
</g>
<!-- d5451c47&#45;4bff&#45;4f95&#45;8f63&#45;0d7c56cf86b1 -->
<g id="node4" class="node">
<title>d5451c47&#45;4bff&#45;4f95&#45;8f63&#45;0d7c56cf86b1</title>
<polygon fill="#b0ffff" stroke="black" points="307.81,-780.16 272.31,-780.16 272.31,-749.66 307.81,-749.66 307.81,-780.16"/>
<text text-anchor="middle" x="290.06" y="-757.16" font-family="Times New Roman,serif" font-size="20.00"> ? </text>
</g>
<!-- 221151f8&#45;3b18&#45;4503&#45;8668&#45;e52b1096c6e0&#45;&gt;d5451c47&#45;4bff&#45;4f95&#45;8f63&#45;0d7c56cf86b1 -->
<g id="edge3" class="edge">
<title>221151f8&#45;3b18&#45;4503&#45;8668&#45;e52b1096c6e0&#45;&gt;d5451c47&#45;4bff&#45;4f95&#45;8f63&#45;0d7c56cf86b1</title>
<path fill="none" stroke="black" d="M378.6,-872.55C374.65,-857.94 367.11,-835.38 355.06,-818.91 344.93,-805.05 330.33,-792.71 317.54,-783.44"/>
<polygon fill="black" stroke="black" points="319.67,-780.65 309.46,-777.83 315.68,-786.41 319.67,-780.65"/>
</g>
<!-- 999f334a&#45;ab91&#45;4548&#45;ace0&#45;604eaf55faa2 -->
<g id="node17" class="node">
<title>999f334a&#45;ab91&#45;4548&#45;ace0&#45;604eaf55faa2</title>
<polygon fill="lightgreen" stroke="black" points="620.56,-782.91 325.56,-782.91 325.56,-746.91 620.56,-746.91 620.56,-782.91"/>
<text text-anchor="middle" x="473.06" y="-757.16" font-family="Times New Roman,serif" font-size="20.00">PutInRoom(agent&#45;1,ball&#45;0,room&#45;1)</text>
</g>
<!-- 221151f8&#45;3b18&#45;4503&#45;8668&#45;e52b1096c6e0&#45;&gt;999f334a&#45;ab91&#45;4548&#45;ace0&#45;604eaf55faa2 -->
<g id="edge16" class="edge">
<title>221151f8&#45;3b18&#45;4503&#45;8668&#45;e52b1096c6e0&#45;&gt;999f334a&#45;ab91&#45;4548&#45;ace0&#45;604eaf55faa2</title>
<path fill="none" stroke="black" d="M392.86,-872.82C407.74,-852.98 434.81,-816.9 453.35,-792.19"/>
<polygon fill="black" stroke="black" points="456.13,-794.32 459.33,-784.22 450.53,-790.12 456.13,-794.32"/>
</g>
<!-- c334cfb8&#45;c26c&#45;4807&#45;824e&#45;9d3fca2d5d55 -->
<g id="node5" class="node">
<title>c334cfb8&#45;c26c&#45;4807&#45;824e&#45;9d3fca2d5d55</title>
<ellipse fill="#ffff80" stroke="black" cx="188.06" cy="-673.44" rx="168.82" ry="37.48"/>
<text text-anchor="middle" x="188.06" y="-676.94" font-family="Times New Roman,serif" font-size="20.00">IsHolding(agent&#45;1,ball&#45;0) &amp;</text>
<text text-anchor="middle" x="188.06" y="-654.44" font-family="Times New Roman,serif" font-size="20.00"> IsInRoom(agent&#45;1,room&#45;1)</text>
</g>
<!-- d5451c47&#45;4bff&#45;4f95&#45;8f63&#45;0d7c56cf86b1&#45;&gt;c334cfb8&#45;c26c&#45;4807&#45;824e&#45;9d3fca2d5d55 -->
<g id="edge4" class="edge">
<title>d5451c47&#45;4bff&#45;4f95&#45;8f63&#45;0d7c56cf86b1&#45;&gt;c334cfb8&#45;c26c&#45;4807&#45;824e&#45;9d3fca2d5d55</title>
<path fill="none" stroke="black" d="M273.68,-749.54C263.7,-740.78 250.37,-729.09 237.21,-717.55"/>
<polygon fill="black" stroke="black" points="239.59,-714.98 229.76,-711.01 234.97,-720.24 239.59,-714.98"/>
</g>
<!-- 52fb1c31&#45;b31e&#45;44ed&#45;8dac&#45;1e0c9558a748 -->
<g id="node6" class="node">
<title>52fb1c31&#45;b31e&#45;44ed&#45;8dac&#45;1e0c9558a748</title>
<polygon fill="#ff8080" stroke="black" points="411.19,-688.69 374.94,-688.69 374.94,-658.19 411.19,-658.19 411.19,-688.69"/>
<text text-anchor="middle" x="393.06" y="-665.69" font-family="Times New Roman,serif" font-size="20.00">→</text>
</g>
<!-- d5451c47&#45;4bff&#45;4f95&#45;8f63&#45;0d7c56cf86b1&#45;&gt;52fb1c31&#45;b31e&#45;44ed&#45;8dac&#45;1e0c9558a748 -->
<g id="edge5" class="edge">
<title>d5451c47&#45;4bff&#45;4f95&#45;8f63&#45;0d7c56cf86b1&#45;&gt;52fb1c31&#45;b31e&#45;44ed&#45;8dac&#45;1e0c9558a748</title>
<path fill="none" stroke="black" d="M308.09,-752.32C327.38,-739.74 356.49,-720.22 366.06,-710.91 370.02,-707.06 373.84,-702.59 377.29,-698.12"/>
<polygon fill="black" stroke="black" points="379.86,-700.53 382.91,-690.38 374.2,-696.42 379.86,-700.53"/>
</g>
<!-- dd80e22f&#45;4679&#45;43ae&#45;87c6&#45;076f5e8aa0c1 -->
<g id="node7" class="node">
<title>dd80e22f&#45;4679&#45;43ae&#45;87c6&#45;076f5e8aa0c1</title>
<polygon fill="#b0ffff" stroke="black" points="311.81,-597.21 276.31,-597.21 276.31,-566.71 311.81,-566.71 311.81,-597.21"/>
<text text-anchor="middle" x="294.06" y="-574.21" font-family="Times New Roman,serif" font-size="20.00"> ? </text>
</g>
<!-- 52fb1c31&#45;b31e&#45;44ed&#45;8dac&#45;1e0c9558a748&#45;&gt;dd80e22f&#45;4679&#45;43ae&#45;87c6&#45;076f5e8aa0c1 -->
<g id="edge6" class="edge">
<title>52fb1c31&#45;b31e&#45;44ed&#45;8dac&#45;1e0c9558a748&#45;&gt;dd80e22f&#45;4679&#45;43ae&#45;87c6&#45;076f5e8aa0c1</title>
<path fill="none" stroke="black" d="M383.72,-657.79C378.9,-650.79 372.65,-642.52 366.06,-635.96 352.58,-622.51 335.48,-609.78 321.34,-600.17"/>
<polygon fill="black" stroke="black" points="323.62,-597.48 313.35,-594.88 319.75,-603.32 323.62,-597.48"/>
</g>
<!-- 5b866f60&#45;047f&#45;40fe&#45;9d4c&#45;c6763629346a -->
<g id="node16" class="node">
<title>5b866f60&#45;047f&#45;40fe&#45;9d4c&#45;c6763629346a</title>
<polygon fill="lightgreen" stroke="black" points="652.06,-599.96 330.06,-599.96 330.06,-563.96 652.06,-563.96 652.06,-599.96"/>
<text text-anchor="middle" x="491.06" y="-574.21" font-family="Times New Roman,serif" font-size="20.00">GoBtwRoom(agent&#45;1,room&#45;0,room&#45;1)</text>
</g>
<!-- 52fb1c31&#45;b31e&#45;44ed&#45;8dac&#45;1e0c9558a748&#45;&gt;5b866f60&#45;047f&#45;40fe&#45;9d4c&#45;c6763629346a -->
<g id="edge15" class="edge">
<title>52fb1c31&#45;b31e&#45;44ed&#45;8dac&#45;1e0c9558a748&#45;&gt;5b866f60&#45;047f&#45;40fe&#45;9d4c&#45;c6763629346a</title>
<path fill="none" stroke="black" d="M408.81,-658.06C423.6,-644.56 446.03,-624.08 463.74,-607.91"/>
<polygon fill="black" stroke="black" points="465.85,-610.72 470.88,-601.39 461.13,-605.55 465.85,-610.72"/>
</g>
<!-- 111344c4&#45;b07d&#45;4554&#45;b0ba&#45;fc66f2846ad1 -->
<g id="node8" class="node">
<title>111344c4&#45;b07d&#45;4554&#45;b0ba&#45;fc66f2846ad1</title>
<ellipse fill="#ffff80" stroke="black" cx="185.06" cy="-474.57" rx="182.61" ry="53.39"/>
<text text-anchor="middle" x="185.06" y="-489.32" font-family="Times New Roman,serif" font-size="20.00">IsHolding(agent&#45;1,ball&#45;0) &amp;</text>
<text text-anchor="middle" x="185.06" y="-466.82" font-family="Times New Roman,serif" font-size="20.00"> IsInRoom(agent&#45;1,room&#45;0) &amp;</text>
<text text-anchor="middle" x="185.06" y="-444.32" font-family="Times New Roman,serif" font-size="20.00"> IsOpen(door&#45;0)</text>
</g>
<!-- dd80e22f&#45;4679&#45;43ae&#45;87c6&#45;076f5e8aa0c1&#45;&gt;111344c4&#45;b07d&#45;4554&#45;b0ba&#45;fc66f2846ad1 -->
<g id="edge7" class="edge">
<title>dd80e22f&#45;4679&#45;43ae&#45;87c6&#45;076f5e8aa0c1&#45;&gt;111344c4&#45;b07d&#45;4554&#45;b0ba&#45;fc66f2846ad1</title>
<path fill="none" stroke="black" d="M278.91,-566.31C269.89,-557.58 257.79,-545.88 245.28,-533.79"/>
<polygon fill="black" stroke="black" points="247.74,-531.3 238.12,-526.87 242.88,-536.33 247.74,-531.3"/>
</g>
<!-- 7e13e2bf&#45;47c7&#45;4a2b&#45;aac1&#45;d3feb54a4567 -->
<g id="node9" class="node">
<title>7e13e2bf&#45;47c7&#45;4a2b&#45;aac1&#45;d3feb54a4567</title>
<polygon fill="#ff8080" stroke="black" points="422.19,-489.82 385.94,-489.82 385.94,-459.32 422.19,-459.32 422.19,-489.82"/>
<text text-anchor="middle" x="404.06" y="-466.82" font-family="Times New Roman,serif" font-size="20.00">→</text>
</g>
<!-- dd80e22f&#45;4679&#45;43ae&#45;87c6&#45;076f5e8aa0c1&#45;&gt;7e13e2bf&#45;47c7&#45;4a2b&#45;aac1&#45;d3feb54a4567 -->
<g id="edge8" class="edge">
<title>dd80e22f&#45;4679&#45;43ae&#45;87c6&#45;076f5e8aa0c1&#45;&gt;7e13e2bf&#45;47c7&#45;4a2b&#45;aac1&#45;d3feb54a4567</title>
<path fill="none" stroke="black" d="M312.13,-569.59C336.16,-554.44 375.78,-529.36 377.06,-527.96 384.3,-520.02 390.14,-509.79 394.51,-500.48"/>
<polygon fill="black" stroke="black" points="397.62,-502.12 398.37,-491.55 391.19,-499.34 397.62,-502.12"/>
</g>
<!-- 69f30f76&#45;5d6e&#45;4090&#45;b35d&#45;f1ddf91de5b6 -->
<g id="node10" class="node">
<title>69f30f76&#45;5d6e&#45;4090&#45;b35d&#45;f1ddf91de5b6</title>
<polygon fill="#b0ffff" stroke="black" points="353.81,-382.44 318.31,-382.44 318.31,-351.94 353.81,-351.94 353.81,-382.44"/>
<text text-anchor="middle" x="336.06" y="-359.44" font-family="Times New Roman,serif" font-size="20.00"> ? </text>
</g>
<!-- 7e13e2bf&#45;47c7&#45;4a2b&#45;aac1&#45;d3feb54a4567&#45;&gt;69f30f76&#45;5d6e&#45;4090&#45;b35d&#45;f1ddf91de5b6 -->
<g id="edge9" class="edge">
<title>7e13e2bf&#45;47c7&#45;4a2b&#45;aac1&#45;d3feb54a4567&#45;&gt;69f30f76&#45;5d6e&#45;4090&#45;b35d&#45;f1ddf91de5b6</title>
<path fill="none" stroke="black" d="M397.41,-458.95C392.32,-448.22 384.87,-433.44 377.06,-421.19 370.57,-410.99 362.59,-400.34 355.41,-391.28"/>
<polygon fill="black" stroke="black" points="358.27,-389.25 349.25,-383.69 352.83,-393.66 358.27,-389.25"/>
</g>
<!-- 3581233e&#45;df2f&#45;4083&#45;8179&#45;d3f0f3998868 -->
<g id="node15" class="node">
<title>3581233e&#45;df2f&#45;4083&#45;8179&#45;d3f0f3998868</title>
<polygon fill="lightgreen" stroke="black" points="570.56,-385.19 371.56,-385.19 371.56,-349.19 570.56,-349.19 570.56,-385.19"/>
<text text-anchor="middle" x="471.06" y="-359.44" font-family="Times New Roman,serif" font-size="20.00">PickUp(agent&#45;1,ball&#45;0)</text>
</g>
<!-- 7e13e2bf&#45;47c7&#45;4a2b&#45;aac1&#45;d3feb54a4567&#45;&gt;3581233e&#45;df2f&#45;4083&#45;8179&#45;d3f0f3998868 -->
<g id="edge14" class="edge">
<title>7e13e2bf&#45;47c7&#45;4a2b&#45;aac1&#45;d3feb54a4567&#45;&gt;3581233e&#45;df2f&#45;4083&#45;8179&#45;d3f0f3998868</title>
<path fill="none" stroke="black" d="M413.38,-458.92C423.84,-442.47 441.03,-415.43 453.93,-395.14"/>
<polygon fill="black" stroke="black" points="456.82,-397.11 459.24,-386.79 450.92,-393.35 456.82,-397.11"/>
</g>
<!-- d8d9fc94&#45;9149&#45;4db2&#45;aba6&#45;96659282320d -->
<g id="node11" class="node">
<title>d8d9fc94&#45;9149&#45;4db2&#45;aba6&#45;96659282320d</title>
<ellipse fill="#ffff80" stroke="black" cx="227.06" cy="-243.89" rx="182.61" ry="69.3"/>
<text text-anchor="middle" x="227.06" y="-269.89" font-family="Times New Roman,serif" font-size="20.00">IsHandEmpty(agent&#45;1) &amp;</text>
<text text-anchor="middle" x="227.06" y="-247.39" font-family="Times New Roman,serif" font-size="20.00"> IsInRoom(agent&#45;1,room&#45;0) &amp;</text>
<text text-anchor="middle" x="227.06" y="-224.89" font-family="Times New Roman,serif" font-size="20.00"> IsNear(agent&#45;1,ball&#45;0) &amp;</text>
<text text-anchor="middle" x="227.06" y="-202.39" font-family="Times New Roman,serif" font-size="20.00"> IsOpen(door&#45;0)</text>
</g>
<!-- 69f30f76&#45;5d6e&#45;4090&#45;b35d&#45;f1ddf91de5b6&#45;&gt;d8d9fc94&#45;9149&#45;4db2&#45;aba6&#45;96659282320d -->
<g id="edge10" class="edge">
<title>69f30f76&#45;5d6e&#45;4090&#45;b35d&#45;f1ddf91de5b6&#45;&gt;d8d9fc94&#45;9149&#45;4db2&#45;aba6&#45;96659282320d</title>
<path fill="none" stroke="black" d="M323.13,-351.8C315.27,-343.04 304.56,-331.13 293.14,-318.42"/>
<polygon fill="black" stroke="black" points="295.86,-316.21 286.57,-311.11 290.65,-320.89 295.86,-316.21"/>
</g>
<!-- 013308a7&#45;aa63&#45;46e5&#45;87a2&#45;429ffb5cee81 -->
<g id="node12" class="node">
<title>013308a7&#45;aa63&#45;46e5&#45;87a2&#45;429ffb5cee81</title>
<polygon fill="#ff8080" stroke="black" points="464.19,-259.14 427.94,-259.14 427.94,-228.64 464.19,-228.64 464.19,-259.14"/>
<text text-anchor="middle" x="446.06" y="-236.14" font-family="Times New Roman,serif" font-size="20.00">→</text>
</g>
<!-- 69f30f76&#45;5d6e&#45;4090&#45;b35d&#45;f1ddf91de5b6&#45;&gt;013308a7&#45;aa63&#45;46e5&#45;87a2&#45;429ffb5cee81 -->
<g id="edge11" class="edge">
<title>69f30f76&#45;5d6e&#45;4090&#45;b35d&#45;f1ddf91de5b6&#45;&gt;013308a7&#45;aa63&#45;46e5&#45;87a2&#45;429ffb5cee81</title>
<path fill="none" stroke="black" d="M353.91,-354.89C378.12,-339.54 418.46,-313.92 419.06,-313.19 429.27,-300.81 435.96,-284.11 440.13,-270.32"/>
<polygon fill="black" stroke="black" points="443.41,-271.61 442.67,-261.04 436.66,-269.77 443.41,-271.61"/>
</g>
<!-- de5d3814&#45;5dc0&#45;4f61&#45;bd57&#45;4e963c1c4006 -->
<g id="node13" class="node">
<title>de5d3814&#45;5dc0&#45;4f61&#45;bd57&#45;4e963c1c4006</title>
<ellipse fill="#ffff80" stroke="black" cx="267.06" cy="-69.3" rx="182.61" ry="69.3"/>
<text text-anchor="middle" x="267.06" y="-95.3" font-family="Times New Roman,serif" font-size="20.00">CanGoTo(ball&#45;0) &amp;</text>
<text text-anchor="middle" x="267.06" y="-72.8" font-family="Times New Roman,serif" font-size="20.00"> IsHandEmpty(agent&#45;1) &amp;</text>
<text text-anchor="middle" x="267.06" y="-50.3" font-family="Times New Roman,serif" font-size="20.00"> IsInRoom(agent&#45;1,room&#45;0) &amp;</text>
<text text-anchor="middle" x="267.06" y="-27.8" font-family="Times New Roman,serif" font-size="20.00"> IsOpen(door&#45;0)</text>
</g>
<!-- 013308a7&#45;aa63&#45;46e5&#45;87a2&#45;429ffb5cee81&#45;&gt;de5d3814&#45;5dc0&#45;4f61&#45;bd57&#45;4e963c1c4006 -->
<g id="edge12" class="edge">
<title>013308a7&#45;aa63&#45;46e5&#45;87a2&#45;429ffb5cee81&#45;&gt;de5d3814&#45;5dc0&#45;4f61&#45;bd57&#45;4e963c1c4006</title>
<path fill="none" stroke="black" d="M442.96,-228.29C439.24,-213.52 431.86,-190.65 419.06,-174.59 407.23,-159.74 392.71,-146.17 377.38,-134.08"/>
<polygon fill="black" stroke="black" points="379.56,-131.34 369.49,-128.06 375.32,-136.9 379.56,-131.34"/>
</g>
<!-- 0bd7837d&#45;da7b&#45;417d&#45;ba39&#45;3ea3e0ca83c8 -->
<g id="node14" class="node">
<title>0bd7837d&#45;da7b&#45;417d&#45;ba39&#45;3ea3e0ca83c8</title>
<polygon fill="lightgreen" stroke="black" points="780.56,-87.3 467.56,-87.3 467.56,-51.3 780.56,-51.3 780.56,-87.3"/>
<text text-anchor="middle" x="624.06" y="-61.55" font-family="Times New Roman,serif" font-size="20.00">GoToInRoom(agent&#45;1,ball&#45;0,room&#45;0)</text>
</g>
<!-- 013308a7&#45;aa63&#45;46e5&#45;87a2&#45;429ffb5cee81&#45;&gt;0bd7837d&#45;da7b&#45;417d&#45;ba39&#45;3ea3e0ca83c8 -->
<g id="edge13" class="edge">
<title>013308a7&#45;aa63&#45;46e5&#45;87a2&#45;429ffb5cee81&#45;&gt;0bd7837d&#45;da7b&#45;417d&#45;ba39&#45;3ea3e0ca83c8</title>
<path fill="none" stroke="black" d="M461.24,-228.17C491.65,-198.69 560.33,-132.09 598.05,-95.52"/>
<polygon fill="black" stroke="black" points="600.22,-98.29 604.96,-88.82 595.35,-93.26 600.22,-98.29"/>
</g>
</g>
</svg>
