<?xml version="1.0" encoding="UTF-8" standalone="no"?>
<!DOCTYPE svg PUBLIC "-//W3C//DTD SVG 1.1//EN"
 "http://www.w3.org/Graphics/SVG/1.1/DTD/svg11.dtd">
<!-- Generated by graphviz version 12.1.0 (20240811.2233)
 -->
<!-- Title: pastafarianism Pages: 1 -->
<svg width="786pt" height="1064pt"
 viewBox="0.00 0.00 786.11 1063.83" xmlns="http://www.w3.org/2000/svg" xmlns:xlink="http://www.w3.org/1999/xlink">
<g id="graph0" class="graph" transform="scale(1 1) rotate(0) translate(4 1059.83)">
<title>pastafarianism</title>
<polygon fill="white" stroke="none" points="-4,4 -4,-1059.83 782.11,-1059.83 782.11,4 -4,4"/>
<!-- 72e5932f&#45;9c6b&#45;42c8&#45;a4f0&#45;79139ed0e7cd -->
<g id="node1" class="node">
<title>72e5932f&#45;9c6b&#45;42c8&#45;a4f0&#45;79139ed0e7cd</title>
<polygon fill="#b0ffff" stroke="black" points="314.36,-1055.83 278.86,-1055.83 278.86,-1025.33 314.36,-1025.33 314.36,-1055.83"/>
<text text-anchor="middle" x="296.61" y="-1032.83" font-family="Times New Roman,serif" font-size="20.00"> ? </text>
</g>
<!-- 5bb7e940&#45;9f6b&#45;4a26&#45;889e&#45;23e41592cab3 -->
<g id="node2" class="node">
<title>5bb7e940&#45;9f6b&#45;4a26&#45;889e&#45;23e41592cab3</title>
<ellipse fill="#ffff80" stroke="black" cx="192.61" cy="-904.12" rx="173.06" ry="85.21"/>
<text text-anchor="middle" x="192.61" y="-941.37" font-family="Times New Roman,serif" font-size="20.00">CanGoTo(ball&#45;1) &amp;</text>
<text text-anchor="middle" x="192.61" y="-918.87" font-family="Times New Roman,serif" font-size="20.00"> IsHandEmpty(agent&#45;2) &amp;</text>
<text text-anchor="middle" x="192.61" y="-896.37" font-family="Times New Roman,serif" font-size="20.00"> IsInRoom(ball&#45;1,room&#45;1) &amp;</text>
<text text-anchor="middle" x="192.61" y="-873.87" font-family="Times New Roman,serif" font-size="20.00"> IsNear(agent&#45;2,ball&#45;1) &amp;</text>
<text text-anchor="middle" x="192.61" y="-851.37" font-family="Times New Roman,serif" font-size="20.00"> IsNear(ball&#45;1,ball&#45;3)</text>
</g>
<!-- 72e5932f&#45;9c6b&#45;42c8&#45;a4f0&#45;79139ed0e7cd&#45;&gt;5bb7e940&#45;9f6b&#45;4a26&#45;889e&#45;23e41592cab3 -->
<g id="edge1" class="edge">
<title>72e5932f&#45;9c6b&#45;42c8&#45;a4f0&#45;79139ed0e7cd&#45;&gt;5bb7e940&#45;9f6b&#45;4a26&#45;889e&#45;23e41592cab3</title>
<path fill="none" stroke="black" d="M285.28,-1024.93C278.84,-1016.6 270.19,-1005.42 260.75,-993.22"/>
<polygon fill="black" stroke="black" points="263.57,-991.14 254.69,-985.37 258.04,-995.43 263.57,-991.14"/>
</g>
<!-- 9ac549e9&#45;fb45&#45;4958&#45;a0ae&#45;c6c37e9fa96d -->
<g id="node3" class="node">
<title>9ac549e9&#45;fb45&#45;4958&#45;a0ae&#45;c6c37e9fa96d</title>
<polygon fill="#ff8080" stroke="black" points="419.74,-919.37 383.49,-919.37 383.49,-888.87 419.74,-888.87 419.74,-919.37"/>
<text text-anchor="middle" x="401.61" y="-896.37" font-family="Times New Roman,serif" font-size="20.00">→</text>
</g>
<!-- 72e5932f&#45;9c6b&#45;42c8&#45;a4f0&#45;79139ed0e7cd&#45;&gt;9ac549e9&#45;fb45&#45;4958&#45;a0ae&#45;c6c37e9fa96d -->
<g id="edge2" class="edge">
<title>72e5932f&#45;9c6b&#45;42c8&#45;a4f0&#45;79139ed0e7cd&#45;&gt;9ac549e9&#45;fb45&#45;4958&#45;a0ae&#45;c6c37e9fa96d</title>
<path fill="none" stroke="black" d="M314.67,-1032.3C332.38,-1024.29 358.92,-1009.77 374.61,-989.33 387.67,-972.3 394.52,-948.77 398.04,-930.91"/>
<polygon fill="black" stroke="black" points="401.49,-931.54 399.73,-921.09 394.59,-930.35 401.49,-931.54"/>
</g>
<!-- a680e122&#45;fca1&#45;4244&#45;8294&#45;a1cce91afae3 -->
<g id="node4" class="node">
<title>a680e122&#45;fca1&#45;4244&#45;8294&#45;a1cce91afae3</title>
<polygon fill="#b0ffff" stroke="black" points="305.36,-780.16 269.86,-780.16 269.86,-749.66 305.36,-749.66 305.36,-780.16"/>
<text text-anchor="middle" x="287.61" y="-757.16" font-family="Times New Roman,serif" font-size="20.00"> ? </text>
</g>
<!-- 9ac549e9&#45;fb45&#45;4958&#45;a0ae&#45;c6c37e9fa96d&#45;&gt;a680e122&#45;fca1&#45;4244&#45;8294&#45;a1cce91afae3 -->
<g id="edge3" class="edge">
<title>9ac549e9&#45;fb45&#45;4958&#45;a0ae&#45;c6c37e9fa96d&#45;&gt;a680e122&#45;fca1&#45;4244&#45;8294&#45;a1cce91afae3</title>
<path fill="none" stroke="black" d="M400.1,-888.55C397.56,-870.5 391.01,-839.6 374.61,-818.91 357.18,-796.92 343.92,-798.57 315.41,-783.01"/>
<polygon fill="black" stroke="black" points="317.3,-780.06 306.89,-778.07 313.78,-786.12 317.3,-780.06"/>
</g>
<!-- 2e149f46&#45;ca65&#45;4514&#45;8b5e&#45;7a5cc047a04d -->
<g id="node17" class="node">
<title>2e149f46&#45;ca65&#45;4514&#45;8b5e&#45;7a5cc047a04d</title>
<polygon fill="lightgreen" stroke="black" points="708.11,-782.91 323.11,-782.91 323.11,-746.91 708.11,-746.91 708.11,-782.91"/>
<text text-anchor="middle" x="515.61" y="-757.16" font-family="Times New Roman,serif" font-size="20.00">PutNearInRoom(agent&#45;2,ball&#45;1,ball&#45;3,room&#45;1)</text>
</g>
<!-- 9ac549e9&#45;fb45&#45;4958&#45;a0ae&#45;c6c37e9fa96d&#45;&gt;2e149f46&#45;ca65&#45;4514&#45;8b5e&#45;7a5cc047a04d -->
<g id="edge16" class="edge">
<title>9ac549e9&#45;fb45&#45;4958&#45;a0ae&#45;c6c37e9fa96d&#45;&gt;2e149f46&#45;ca65&#45;4514&#45;8b5e&#45;7a5cc047a04d</title>
<path fill="none" stroke="black" d="M413.81,-888.44C432.99,-865.35 470.44,-820.28 494.18,-791.7"/>
<polygon fill="black" stroke="black" points="496.7,-794.15 500.4,-784.22 491.32,-789.67 496.7,-794.15"/>
</g>
<!-- 4417d897&#45;0796&#45;4896&#45;be4d&#45;7dd17393ca5c -->
<g id="node5" class="node">
<title>4417d897&#45;0796&#45;4896&#45;be4d&#45;7dd17393ca5c</title>
<ellipse fill="#ffff80" stroke="black" cx="185.61" cy="-673.44" rx="168.82" ry="37.48"/>
<text text-anchor="middle" x="185.61" y="-676.94" font-family="Times New Roman,serif" font-size="20.00">IsHolding(agent&#45;2,ball&#45;1) &amp;</text>
<text text-anchor="middle" x="185.61" y="-654.44" font-family="Times New Roman,serif" font-size="20.00"> IsInRoom(agent&#45;2,room&#45;1)</text>
</g>
<!-- a680e122&#45;fca1&#45;4244&#45;8294&#45;a1cce91afae3&#45;&gt;4417d897&#45;0796&#45;4896&#45;be4d&#45;7dd17393ca5c -->
<g id="edge4" class="edge">
<title>a680e122&#45;fca1&#45;4244&#45;8294&#45;a1cce91afae3&#45;&gt;4417d897&#45;0796&#45;4896&#45;be4d&#45;7dd17393ca5c</title>
<path fill="none" stroke="black" d="M271.22,-749.54C261.24,-740.78 247.92,-729.09 234.76,-717.55"/>
<polygon fill="black" stroke="black" points="237.13,-714.98 227.31,-711.01 232.52,-720.24 237.13,-714.98"/>
</g>
<!-- b2607d11&#45;2a8b&#45;4680&#45;9d5d&#45;18197aaa88dd -->
<g id="node6" class="node">
<title>b2607d11&#45;2a8b&#45;4680&#45;9d5d&#45;18197aaa88dd</title>
<polygon fill="#ff8080" stroke="black" points="408.74,-688.69 372.49,-688.69 372.49,-658.19 408.74,-658.19 408.74,-688.69"/>
<text text-anchor="middle" x="390.61" y="-665.69" font-family="Times New Roman,serif" font-size="20.00">→</text>
</g>
<!-- a680e122&#45;fca1&#45;4244&#45;8294&#45;a1cce91afae3&#45;&gt;b2607d11&#45;2a8b&#45;4680&#45;9d5d&#45;18197aaa88dd -->
<g id="edge5" class="edge">
<title>a680e122&#45;fca1&#45;4244&#45;8294&#45;a1cce91afae3&#45;&gt;b2607d11&#45;2a8b&#45;4680&#45;9d5d&#45;18197aaa88dd</title>
<path fill="none" stroke="black" d="M305.64,-752.32C324.92,-739.74 354.04,-720.22 363.61,-710.91 367.57,-707.06 371.38,-702.59 374.83,-698.12"/>
<polygon fill="black" stroke="black" points="377.41,-700.53 380.45,-690.38 371.75,-696.42 377.41,-700.53"/>
</g>
<!-- 9bcf09c2&#45;b80e&#45;4f20&#45;a674&#45;5ea414ff68c4 -->
<g id="node7" class="node">
<title>9bcf09c2&#45;b80e&#45;4f20&#45;a674&#45;5ea414ff68c4</title>
<polygon fill="#b0ffff" stroke="black" points="309.36,-597.21 273.86,-597.21 273.86,-566.71 309.36,-566.71 309.36,-597.21"/>
<text text-anchor="middle" x="291.61" y="-574.21" font-family="Times New Roman,serif" font-size="20.00"> ? </text>
</g>
<!-- b2607d11&#45;2a8b&#45;4680&#45;9d5d&#45;18197aaa88dd&#45;&gt;9bcf09c2&#45;b80e&#45;4f20&#45;a674&#45;5ea414ff68c4 -->
<g id="edge6" class="edge">
<title>b2607d11&#45;2a8b&#45;4680&#45;9d5d&#45;18197aaa88dd&#45;&gt;9bcf09c2&#45;b80e&#45;4f20&#45;a674&#45;5ea414ff68c4</title>
<path fill="none" stroke="black" d="M381.27,-657.79C376.44,-650.79 370.19,-642.52 363.61,-635.96 350.13,-622.51 333.03,-609.78 318.88,-600.17"/>
<polygon fill="black" stroke="black" points="321.17,-597.48 310.9,-594.88 317.3,-603.32 321.17,-597.48"/>
</g>
<!-- 6a4ae947&#45;36cc&#45;4c5c&#45;949a&#45;ed4393e0f443 -->
<g id="node16" class="node">
<title>6a4ae947&#45;36cc&#45;4c5c&#45;949a&#45;ed4393e0f443</title>
<polygon fill="lightgreen" stroke="black" points="649.61,-599.96 327.61,-599.96 327.61,-563.96 649.61,-563.96 649.61,-599.96"/>
<text text-anchor="middle" x="488.61" y="-574.21" font-family="Times New Roman,serif" font-size="20.00">GoBtwRoom(agent&#45;2,room&#45;0,room&#45;1)</text>
</g>
<!-- b2607d11&#45;2a8b&#45;4680&#45;9d5d&#45;18197aaa88dd&#45;&gt;6a4ae947&#45;36cc&#45;4c5c&#45;949a&#45;ed4393e0f443 -->
<g id="edge15" class="edge">
<title>b2607d11&#45;2a8b&#45;4680&#45;9d5d&#45;18197aaa88dd&#45;&gt;6a4ae947&#45;36cc&#45;4c5c&#45;949a&#45;ed4393e0f443</title>
<path fill="none" stroke="black" d="M406.36,-658.06C421.14,-644.56 443.58,-624.08 461.28,-607.91"/>
<polygon fill="black" stroke="black" points="463.4,-610.72 468.42,-601.39 458.68,-605.55 463.4,-610.72"/>
</g>
<!-- 630f781e&#45;8679&#45;43d2&#45;bc5c&#45;2bde3fe2f833 -->
<g id="node8" class="node">
<title>630f781e&#45;8679&#45;43d2&#45;bc5c&#45;2bde3fe2f833</title>
<ellipse fill="#ffff80" stroke="black" cx="182.61" cy="-474.57" rx="182.61" ry="53.39"/>
<text text-anchor="middle" x="182.61" y="-489.32" font-family="Times New Roman,serif" font-size="20.00">IsHolding(agent&#45;2,ball&#45;1) &amp;</text>
<text text-anchor="middle" x="182.61" y="-466.82" font-family="Times New Roman,serif" font-size="20.00"> IsInRoom(agent&#45;2,room&#45;0) &amp;</text>
<text text-anchor="middle" x="182.61" y="-444.32" font-family="Times New Roman,serif" font-size="20.00"> IsOpen(door&#45;0)</text>
</g>
<!-- 9bcf09c2&#45;b80e&#45;4f20&#45;a674&#45;5ea414ff68c4&#45;&gt;630f781e&#45;8679&#45;43d2&#45;bc5c&#45;2bde3fe2f833 -->
<g id="edge7" class="edge">
<title>9bcf09c2&#45;b80e&#45;4f20&#45;a674&#45;5ea414ff68c4&#45;&gt;630f781e&#45;8679&#45;43d2&#45;bc5c&#45;2bde3fe2f833</title>
<path fill="none" stroke="black" d="M276.45,-566.31C267.43,-557.58 255.33,-545.88 242.83,-533.79"/>
<polygon fill="black" stroke="black" points="245.29,-531.3 235.66,-526.87 240.42,-536.33 245.29,-531.3"/>
</g>
<!-- 09a6c38b&#45;1e8d&#45;44cb&#45;b895&#45;178a0f7a11f1 -->
<g id="node9" class="node">
<title>09a6c38b&#45;1e8d&#45;44cb&#45;b895&#45;178a0f7a11f1</title>
<polygon fill="#ff8080" stroke="black" points="419.74,-489.82 383.49,-489.82 383.49,-459.32 419.74,-459.32 419.74,-489.82"/>
<text text-anchor="middle" x="401.61" y="-466.82" font-family="Times New Roman,serif" font-size="20.00">→</text>
</g>
<!-- 9bcf09c2&#45;b80e&#45;4f20&#45;a674&#45;5ea414ff68c4&#45;&gt;09a6c38b&#45;1e8d&#45;44cb&#45;b895&#45;178a0f7a11f1 -->
<g id="edge8" class="edge">
<title>9bcf09c2&#45;b80e&#45;4f20&#45;a674&#45;5ea414ff68c4&#45;&gt;09a6c38b&#45;1e8d&#45;44cb&#45;b895&#45;178a0f7a11f1</title>
<path fill="none" stroke="black" d="M309.67,-569.59C333.7,-554.44 373.33,-529.36 374.61,-527.96 381.84,-520.02 387.68,-509.79 392.06,-500.48"/>
<polygon fill="black" stroke="black" points="395.16,-502.12 395.91,-491.55 388.74,-499.34 395.16,-502.12"/>
</g>
<!-- f6f2ca32&#45;97ff&#45;484f&#45;a014&#45;79f1a2a939e8 -->
<g id="node10" class="node">
<title>f6f2ca32&#45;97ff&#45;484f&#45;a014&#45;79f1a2a939e8</title>
<polygon fill="#b0ffff" stroke="black" points="351.36,-382.44 315.86,-382.44 315.86,-351.94 351.36,-351.94 351.36,-382.44"/>
<text text-anchor="middle" x="333.61" y="-359.44" font-family="Times New Roman,serif" font-size="20.00"> ? </text>
</g>
<!-- 09a6c38b&#45;1e8d&#45;44cb&#45;b895&#45;178a0f7a11f1&#45;&gt;f6f2ca32&#45;97ff&#45;484f&#45;a014&#45;79f1a2a939e8 -->
<g id="edge9" class="edge">
<title>09a6c38b&#45;1e8d&#45;44cb&#45;b895&#45;178a0f7a11f1&#45;&gt;f6f2ca32&#45;97ff&#45;484f&#45;a014&#45;79f1a2a939e8</title>
<path fill="none" stroke="black" d="M394.96,-458.95C389.87,-448.22 382.42,-433.44 374.61,-421.19 368.12,-410.99 360.14,-400.34 352.95,-391.28"/>
<polygon fill="black" stroke="black" points="355.81,-389.25 346.8,-383.69 350.37,-393.66 355.81,-389.25"/>
</g>
<!-- db9aee81&#45;0146&#45;411e&#45;8f07&#45;fddc180f6139 -->
<g id="node15" class="node">
<title>db9aee81&#45;0146&#45;411e&#45;8f07&#45;fddc180f6139</title>
<polygon fill="lightgreen" stroke="black" points="568.11,-385.19 369.11,-385.19 369.11,-349.19 568.11,-349.19 568.11,-385.19"/>
<text text-anchor="middle" x="468.61" y="-359.44" font-family="Times New Roman,serif" font-size="20.00">PickUp(agent&#45;2,ball&#45;1)</text>
</g>
<!-- 09a6c38b&#45;1e8d&#45;44cb&#45;b895&#45;178a0f7a11f1&#45;&gt;db9aee81&#45;0146&#45;411e&#45;8f07&#45;fddc180f6139 -->
<g id="edge14" class="edge">
<title>09a6c38b&#45;1e8d&#45;44cb&#45;b895&#45;178a0f7a11f1&#45;&gt;db9aee81&#45;0146&#45;411e&#45;8f07&#45;fddc180f6139</title>
<path fill="none" stroke="black" d="M410.93,-458.92C421.38,-442.47 438.58,-415.43 451.48,-395.14"/>
<polygon fill="black" stroke="black" points="454.37,-397.11 456.78,-386.79 448.46,-393.35 454.37,-397.11"/>
</g>
<!-- 5b87202e&#45;550d&#45;4132&#45;96a5&#45;0e19879e0e0f -->
<g id="node11" class="node">
<title>5b87202e&#45;550d&#45;4132&#45;96a5&#45;0e19879e0e0f</title>
<ellipse fill="#ffff80" stroke="black" cx="224.61" cy="-243.89" rx="182.61" ry="69.3"/>
<text text-anchor="middle" x="224.61" y="-269.89" font-family="Times New Roman,serif" font-size="20.00">IsHandEmpty(agent&#45;2) &amp;</text>
<text text-anchor="middle" x="224.61" y="-247.39" font-family="Times New Roman,serif" font-size="20.00"> IsInRoom(agent&#45;2,room&#45;0) &amp;</text>
<text text-anchor="middle" x="224.61" y="-224.89" font-family="Times New Roman,serif" font-size="20.00"> IsNear(agent&#45;2,ball&#45;1) &amp;</text>
<text text-anchor="middle" x="224.61" y="-202.39" font-family="Times New Roman,serif" font-size="20.00"> IsOpen(door&#45;0)</text>
</g>
<!-- f6f2ca32&#45;97ff&#45;484f&#45;a014&#45;79f1a2a939e8&#45;&gt;5b87202e&#45;550d&#45;4132&#45;96a5&#45;0e19879e0e0f -->
<g id="edge10" class="edge">
<title>f6f2ca32&#45;97ff&#45;484f&#45;a014&#45;79f1a2a939e8&#45;&gt;5b87202e&#45;550d&#45;4132&#45;96a5&#45;0e19879e0e0f</title>
<path fill="none" stroke="black" d="M320.68,-351.8C312.81,-343.04 302.11,-331.13 290.69,-318.42"/>
<polygon fill="black" stroke="black" points="293.41,-316.21 284.12,-311.11 288.2,-320.89 293.41,-316.21"/>
</g>
<!-- 2296c4c3&#45;7760&#45;4693&#45;af97&#45;0d01cd77f6f2 -->
<g id="node12" class="node">
<title>2296c4c3&#45;7760&#45;4693&#45;af97&#45;0d01cd77f6f2</title>
<polygon fill="#ff8080" stroke="black" points="461.74,-259.14 425.49,-259.14 425.49,-228.64 461.74,-228.64 461.74,-259.14"/>
<text text-anchor="middle" x="443.61" y="-236.14" font-family="Times New Roman,serif" font-size="20.00">→</text>
</g>
<!-- f6f2ca32&#45;97ff&#45;484f&#45;a014&#45;79f1a2a939e8&#45;&gt;2296c4c3&#45;7760&#45;4693&#45;af97&#45;0d01cd77f6f2 -->
<g id="edge11" class="edge">
<title>f6f2ca32&#45;97ff&#45;484f&#45;a014&#45;79f1a2a939e8&#45;&gt;2296c4c3&#45;7760&#45;4693&#45;af97&#45;0d01cd77f6f2</title>
<path fill="none" stroke="black" d="M351.45,-354.89C375.67,-339.54 416,-313.92 416.61,-313.19 426.81,-300.81 433.51,-284.11 437.68,-270.32"/>
<polygon fill="black" stroke="black" points="440.95,-271.61 440.21,-261.04 434.2,-269.77 440.95,-271.61"/>
</g>
<!-- 28d6a73a&#45;9533&#45;4f8d&#45;94d7&#45;63c4f49dee23 -->
<g id="node13" class="node">
<title>28d6a73a&#45;9533&#45;4f8d&#45;94d7&#45;63c4f49dee23</title>
<ellipse fill="#ffff80" stroke="black" cx="264.61" cy="-69.3" rx="182.61" ry="69.3"/>
<text text-anchor="middle" x="264.61" y="-95.3" font-family="Times New Roman,serif" font-size="20.00">CanGoTo(ball&#45;1) &amp;</text>
<text text-anchor="middle" x="264.61" y="-72.8" font-family="Times New Roman,serif" font-size="20.00"> IsHandEmpty(agent&#45;2) &amp;</text>
<text text-anchor="middle" x="264.61" y="-50.3" font-family="Times New Roman,serif" font-size="20.00"> IsInRoom(agent&#45;2,room&#45;0) &amp;</text>
<text text-anchor="middle" x="264.61" y="-27.8" font-family="Times New Roman,serif" font-size="20.00"> IsOpen(door&#45;0)</text>
</g>
<!-- 2296c4c3&#45;7760&#45;4693&#45;af97&#45;0d01cd77f6f2&#45;&gt;28d6a73a&#45;9533&#45;4f8d&#45;94d7&#45;63c4f49dee23 -->
<g id="edge12" class="edge">
<title>2296c4c3&#45;7760&#45;4693&#45;af97&#45;0d01cd77f6f2&#45;&gt;28d6a73a&#45;9533&#45;4f8d&#45;94d7&#45;63c4f49dee23</title>
<path fill="none" stroke="black" d="M440.5,-228.29C436.79,-213.52 429.4,-190.65 416.61,-174.59 404.77,-159.74 390.25,-146.17 374.93,-134.08"/>
<polygon fill="black" stroke="black" points="377.11,-131.34 367.03,-128.06 372.86,-136.9 377.11,-131.34"/>
</g>
<!-- b96a2414&#45;25bc&#45;42b9&#45;bc4e&#45;d23998b6e1be -->
<g id="node14" class="node">
<title>b96a2414&#45;25bc&#45;42b9&#45;bc4e&#45;d23998b6e1be</title>
<polygon fill="lightgreen" stroke="black" points="778.11,-87.3 465.11,-87.3 465.11,-51.3 778.11,-51.3 778.11,-87.3"/>
<text text-anchor="middle" x="621.61" y="-61.55" font-family="Times New Roman,serif" font-size="20.00">GoToInRoom(agent&#45;2,ball&#45;1,room&#45;0)</text>
</g>
<!-- 2296c4c3&#45;7760&#45;4693&#45;af97&#45;0d01cd77f6f2&#45;&gt;b96a2414&#45;25bc&#45;42b9&#45;bc4e&#45;d23998b6e1be -->
<g id="edge13" class="edge">
<title>2296c4c3&#45;7760&#45;4693&#45;af97&#45;0d01cd77f6f2&#45;&gt;b96a2414&#45;25bc&#45;42b9&#45;bc4e&#45;d23998b6e1be</title>
<path fill="none" stroke="black" d="M458.79,-228.17C489.19,-198.69 557.88,-132.09 595.6,-95.52"/>
<polygon fill="black" stroke="black" points="597.77,-98.29 602.51,-88.82 592.89,-93.26 597.77,-98.29"/>
</g>
</g>
</svg>
