<?xml version="1.0" encoding="UTF-8" standalone="no"?>
<!DOCTYPE svg PUBLIC "-//W3C//DTD SVG 1.1//EN"
 "http://www.w3.org/Graphics/SVG/1.1/DTD/svg11.dtd">
<!-- Generated by graphviz version 12.1.0 (20240811.2233)
 -->
<!-- Title: pastafarianism Pages: 1 -->
<svg width="763pt" height="1064pt"
 viewBox="0.00 0.00 763.07 1063.83" xmlns="http://www.w3.org/2000/svg" xmlns:xlink="http://www.w3.org/1999/xlink">
<g id="graph0" class="graph" transform="scale(1 1) rotate(0) translate(4 1059.83)">
<title>pastafarianism</title>
<polygon fill="white" stroke="none" points="-4,4 -4,-1059.83 759.07,-1059.83 759.07,4 -4,4"/>
<!-- 45397011&#45;7834&#45;4cfe&#45;91fa&#45;60febe244a46 -->
<g id="node1" class="node">
<title>45397011&#45;7834&#45;4cfe&#45;91fa&#45;60febe244a46</title>
<polygon fill="#b0ffff" stroke="black" points="292.69,-1055.83 257.19,-1055.83 257.19,-1025.33 292.69,-1025.33 292.69,-1055.83"/>
<text text-anchor="middle" x="274.94" y="-1032.83" font-family="Times New Roman,serif" font-size="20.00"> ? </text>
</g>
<!-- 5f6fa347&#45;1026&#45;4a8f&#45;b0aa&#45;16a27dc9d34d -->
<g id="node2" class="node">
<title>5f6fa347&#45;1026&#45;4a8f&#45;b0aa&#45;16a27dc9d34d</title>
<ellipse fill="#ffff80" stroke="black" cx="207.94" cy="-967.76" rx="97.76" ry="21.57"/>
<text text-anchor="middle" x="207.94" y="-960.01" font-family="Times New Roman,serif" font-size="20.00">IsOpen(door&#45;0)</text>
</g>
<!-- 45397011&#45;7834&#45;4cfe&#45;91fa&#45;60febe244a46&#45;&gt;5f6fa347&#45;1026&#45;4a8f&#45;b0aa&#45;16a27dc9d34d -->
<g id="edge1" class="edge">
<title>45397011&#45;7834&#45;4cfe&#45;91fa&#45;60febe244a46&#45;&gt;5f6fa347&#45;1026&#45;4a8f&#45;b0aa&#45;16a27dc9d34d</title>
<path fill="none" stroke="black" d="M261.06,-1024.9C253.61,-1017.02 244.15,-1007.03 235.29,-997.67"/>
<polygon fill="black" stroke="black" points="237.85,-995.28 228.44,-990.42 232.77,-1000.09 237.85,-995.28"/>
</g>
<!-- d1795f00&#45;3661&#45;482b&#45;843f&#45;3f1d47a8f019 -->
<g id="node3" class="node">
<title>d1795f00&#45;3661&#45;482b&#45;843f&#45;3f1d47a8f019</title>
<polygon fill="#ff8080" stroke="black" points="360.07,-983.01 323.82,-983.01 323.82,-952.51 360.07,-952.51 360.07,-983.01"/>
<text text-anchor="middle" x="341.94" y="-960.01" font-family="Times New Roman,serif" font-size="20.00">→</text>
</g>
<!-- 45397011&#45;7834&#45;4cfe&#45;91fa&#45;60febe244a46&#45;&gt;d1795f00&#45;3661&#45;482b&#45;843f&#45;3f1d47a8f019 -->
<g id="edge2" class="edge">
<title>45397011&#45;7834&#45;4cfe&#45;91fa&#45;60febe244a46&#45;&gt;d1795f00&#45;3661&#45;482b&#45;843f&#45;3f1d47a8f019</title>
<path fill="none" stroke="black" d="M288.83,-1024.9C297.9,-1015.31 309.94,-1002.59 320.26,-991.68"/>
<polygon fill="black" stroke="black" points="322.71,-994.18 327.04,-984.51 317.62,-989.37 322.71,-994.18"/>
</g>
<!-- a0c12d1a&#45;b604&#45;4971&#45;a743&#45;cb826d178b23 -->
<g id="node4" class="node">
<title>a0c12d1a&#45;b604&#45;4971&#45;a743&#45;cb826d178b23</title>
<polygon fill="#b0ffff" stroke="black" points="291.69,-907.44 256.19,-907.44 256.19,-876.94 291.69,-876.94 291.69,-907.44"/>
<text text-anchor="middle" x="273.94" y="-884.44" font-family="Times New Roman,serif" font-size="20.00"> ? </text>
</g>
<!-- d1795f00&#45;3661&#45;482b&#45;843f&#45;3f1d47a8f019&#45;&gt;a0c12d1a&#45;b604&#45;4971&#45;a743&#45;cb826d178b23 -->
<g id="edge3" class="edge">
<title>d1795f00&#45;3661&#45;482b&#45;843f&#45;3f1d47a8f019&#45;&gt;a0c12d1a&#45;b604&#45;4971&#45;a743&#45;cb826d178b23</title>
<path fill="none" stroke="black" d="M328.51,-952.22C318.92,-941.85 305.82,-927.68 294.87,-915.83"/>
<polygon fill="black" stroke="black" points="297.74,-913.77 288.38,-908.81 292.59,-918.53 297.74,-913.77"/>
</g>
<!-- bc583357&#45;1c80&#45;4f8b&#45;9a22&#45;fd52539ddb24 -->
<g id="node17" class="node">
<title>bc583357&#45;1c80&#45;4f8b&#45;9a22&#45;fd52539ddb24</title>
<polygon fill="lightgreen" stroke="black" points="509.82,-910.19 310.07,-910.19 310.07,-874.19 509.82,-874.19 509.82,-910.19"/>
<text text-anchor="middle" x="409.94" y="-884.44" font-family="Times New Roman,serif" font-size="20.00">Toggle(agent&#45;0,door&#45;0)</text>
</g>
<!-- d1795f00&#45;3661&#45;482b&#45;843f&#45;3f1d47a8f019&#45;&gt;bc583357&#45;1c80&#45;4f8b&#45;9a22&#45;fd52539ddb24 -->
<g id="edge16" class="edge">
<title>d1795f00&#45;3661&#45;482b&#45;843f&#45;3f1d47a8f019&#45;&gt;bc583357&#45;1c80&#45;4f8b&#45;9a22&#45;fd52539ddb24</title>
<path fill="none" stroke="black" d="M355.38,-952.22C364.2,-942.68 375.98,-929.94 386.34,-918.73"/>
<polygon fill="black" stroke="black" points="388.66,-921.37 392.88,-911.65 383.52,-916.62 388.66,-921.37"/>
</g>
<!-- ae390e2b&#45;d2a3&#45;4955&#45;884e&#45;ed7a5c0fa094 -->
<g id="node5" class="node">
<title>ae390e2b&#45;d2a3&#45;4955&#45;884e&#45;ed7a5c0fa094</title>
<ellipse fill="#ffff80" stroke="black" cx="170.94" cy="-784.8" rx="170.94" ry="53.39"/>
<text text-anchor="middle" x="170.94" y="-799.55" font-family="Times New Roman,serif" font-size="20.00">CanOpen(agent&#45;0,door&#45;0) &amp;</text>
<text text-anchor="middle" x="170.94" y="-777.05" font-family="Times New Roman,serif" font-size="20.00"> IsClose(door&#45;0) &amp;</text>
<text text-anchor="middle" x="170.94" y="-754.55" font-family="Times New Roman,serif" font-size="20.00"> IsNear(agent&#45;0,door&#45;0)</text>
</g>
<!-- a0c12d1a&#45;b604&#45;4971&#45;a743&#45;cb826d178b23&#45;&gt;ae390e2b&#45;d2a3&#45;4955&#45;884e&#45;ed7a5c0fa094 -->
<g id="edge4" class="edge">
<title>a0c12d1a&#45;b604&#45;4971&#45;a743&#45;cb826d178b23&#45;&gt;ae390e2b&#45;d2a3&#45;4955&#45;884e&#45;ed7a5c0fa094</title>
<path fill="none" stroke="black" d="M259.62,-876.54C251.1,-867.82 239.66,-856.12 227.84,-844.02"/>
<polygon fill="black" stroke="black" points="230.6,-841.84 221.11,-837.13 225.59,-846.73 230.6,-841.84"/>
</g>
<!-- 128ed8c5&#45;60c8&#45;46be&#45;ad87&#45;88ff62e412cd -->
<g id="node6" class="node">
<title>128ed8c5&#45;60c8&#45;46be&#45;ad87&#45;88ff62e412cd</title>
<polygon fill="#ff8080" stroke="black" points="396.07,-800.05 359.82,-800.05 359.82,-769.55 396.07,-769.55 396.07,-800.05"/>
<text text-anchor="middle" x="377.94" y="-777.05" font-family="Times New Roman,serif" font-size="20.00">→</text>
</g>
<!-- a0c12d1a&#45;b604&#45;4971&#45;a743&#45;cb826d178b23&#45;&gt;128ed8c5&#45;60c8&#45;46be&#45;ad87&#45;88ff62e412cd -->
<g id="edge5" class="edge">
<title>a0c12d1a&#45;b604&#45;4971&#45;a743&#45;cb826d178b23&#45;&gt;128ed8c5&#45;60c8&#45;46be&#45;ad87&#45;88ff62e412cd</title>
<path fill="none" stroke="black" d="M291.88,-879.51C313.16,-865.55 346.33,-843.43 350.94,-838.19 358.04,-830.13 363.85,-819.88 368.25,-810.58"/>
<polygon fill="black" stroke="black" points="371.34,-812.25 372.13,-801.69 364.92,-809.45 371.34,-812.25"/>
</g>
<!-- b88d4ad6&#45;58be&#45;4f2d&#45;9a51&#45;dd710a4a0404 -->
<g id="node7" class="node">
<title>b88d4ad6&#45;58be&#45;4f2d&#45;9a51&#45;dd710a4a0404</title>
<polygon fill="#b0ffff" stroke="black" points="297.69,-692.67 262.19,-692.67 262.19,-662.17 297.69,-662.17 297.69,-692.67"/>
<text text-anchor="middle" x="279.94" y="-669.67" font-family="Times New Roman,serif" font-size="20.00"> ? </text>
</g>
<!-- 128ed8c5&#45;60c8&#45;46be&#45;ad87&#45;88ff62e412cd&#45;&gt;b88d4ad6&#45;58be&#45;4f2d&#45;9a51&#45;dd710a4a0404 -->
<g id="edge6" class="edge">
<title>128ed8c5&#45;60c8&#45;46be&#45;ad87&#45;88ff62e412cd&#45;&gt;b88d4ad6&#45;58be&#45;4f2d&#45;9a51&#45;dd710a4a0404</title>
<path fill="none" stroke="black" d="M372.62,-769.41C368.02,-758.25 360.6,-742.82 350.94,-731.42 344.11,-723.35 324.12,-708.65 307.09,-696.78"/>
<polygon fill="black" stroke="black" points="309.5,-694.19 299.28,-691.39 305.53,-699.95 309.5,-694.19"/>
</g>
<!-- c1404d89&#45;daa5&#45;481d&#45;8d87&#45;45d6a65b9a94 -->
<g id="node16" class="node">
<title>c1404d89&#45;daa5&#45;481d&#45;8d87&#45;45d6a65b9a94</title>
<polygon fill="lightgreen" stroke="black" points="634.44,-695.42 315.44,-695.42 315.44,-659.42 634.44,-659.42 634.44,-695.42"/>
<text text-anchor="middle" x="474.94" y="-669.67" font-family="Times New Roman,serif" font-size="20.00">GoToInRoom(agent&#45;0,door&#45;0,room&#45;0)</text>
</g>
<!-- 128ed8c5&#45;60c8&#45;46be&#45;ad87&#45;88ff62e412cd&#45;&gt;c1404d89&#45;daa5&#45;481d&#45;8d87&#45;45d6a65b9a94 -->
<g id="edge15" class="edge">
<title>128ed8c5&#45;60c8&#45;46be&#45;ad87&#45;88ff62e412cd&#45;&gt;c1404d89&#45;daa5&#45;481d&#45;8d87&#45;45d6a65b9a94</title>
<path fill="none" stroke="black" d="M391.43,-769.15C406.92,-752.33 432.6,-724.42 451.41,-703.99"/>
<polygon fill="black" stroke="black" points="453.77,-706.59 457.97,-696.86 448.62,-701.85 453.77,-706.59"/>
</g>
<!-- c2614e5d&#45;c6c8&#45;47ee&#45;b44a&#45;b256dcb8ecba -->
<g id="node8" class="node">
<title>c2614e5d&#45;c6c8&#45;47ee&#45;b44a&#45;b256dcb8ecba</title>
<ellipse fill="#ffff80" stroke="black" cx="174.94" cy="-554.12" rx="174.66" ry="69.3"/>
<text text-anchor="middle" x="174.94" y="-580.12" font-family="Times New Roman,serif" font-size="20.00">CanGoTo(door&#45;0) &amp;</text>
<text text-anchor="middle" x="174.94" y="-557.62" font-family="Times New Roman,serif" font-size="20.00"> CanOpen(agent&#45;0,door&#45;0) &amp;</text>
<text text-anchor="middle" x="174.94" y="-535.12" font-family="Times New Roman,serif" font-size="20.00"> IsClose(door&#45;0) &amp;</text>
<text text-anchor="middle" x="174.94" y="-512.62" font-family="Times New Roman,serif" font-size="20.00"> IsInRoom(agent&#45;0,room&#45;0)</text>
</g>
<!-- b88d4ad6&#45;58be&#45;4f2d&#45;9a51&#45;dd710a4a0404&#45;&gt;c2614e5d&#45;c6c8&#45;47ee&#45;b44a&#45;b256dcb8ecba -->
<g id="edge7" class="edge">
<title>b88d4ad6&#45;58be&#45;4f2d&#45;9a51&#45;dd710a4a0404&#45;&gt;c2614e5d&#45;c6c8&#45;47ee&#45;b44a&#45;b256dcb8ecba</title>
<path fill="none" stroke="black" d="M267.49,-662.03C259.87,-653.23 249.47,-641.22 238.4,-628.43"/>
<polygon fill="black" stroke="black" points="241.23,-626.35 232.04,-621.08 235.94,-630.93 241.23,-626.35"/>
</g>
<!-- 96c5ab97&#45;444f&#45;446b&#45;bb93&#45;ea8cd28b81f1 -->
<g id="node9" class="node">
<title>96c5ab97&#45;444f&#45;446b&#45;bb93&#45;ea8cd28b81f1</title>
<polygon fill="#ff8080" stroke="black" points="404.07,-569.37 367.82,-569.37 367.82,-538.87 404.07,-538.87 404.07,-569.37"/>
<text text-anchor="middle" x="385.94" y="-546.37" font-family="Times New Roman,serif" font-size="20.00">→</text>
</g>
<!-- b88d4ad6&#45;58be&#45;4f2d&#45;9a51&#45;dd710a4a0404&#45;&gt;96c5ab97&#45;444f&#45;446b&#45;bb93&#45;ea8cd28b81f1 -->
<g id="edge8" class="edge">
<title>b88d4ad6&#45;58be&#45;4f2d&#45;9a51&#45;dd710a4a0404&#45;&gt;96c5ab97&#45;444f&#45;446b&#45;bb93&#45;ea8cd28b81f1</title>
<path fill="none" stroke="black" d="M298.06,-665.07C319.96,-651.23 354.46,-628.98 358.94,-623.42 369,-610.93 375.7,-594.23 379.9,-580.46"/>
<polygon fill="black" stroke="black" points="383.17,-581.78 382.46,-571.21 376.42,-579.91 383.17,-581.78"/>
</g>
<!-- aebb2f97&#45;818e&#45;48f9&#45;897a&#45;75aaeea25bd3 -->
<g id="node10" class="node">
<title>aebb2f97&#45;818e&#45;48f9&#45;897a&#45;75aaeea25bd3</title>
<polygon fill="#b0ffff" stroke="black" points="335.69,-446.08 300.19,-446.08 300.19,-415.58 335.69,-415.58 335.69,-446.08"/>
<text text-anchor="middle" x="317.94" y="-423.08" font-family="Times New Roman,serif" font-size="20.00"> ? </text>
</g>
<!-- 96c5ab97&#45;444f&#45;446b&#45;bb93&#45;ea8cd28b81f1&#45;&gt;aebb2f97&#45;818e&#45;48f9&#45;897a&#45;75aaeea25bd3 -->
<g id="edge9" class="edge">
<title>96c5ab97&#45;444f&#45;446b&#45;bb93&#45;ea8cd28b81f1&#45;&gt;aebb2f97&#45;818e&#45;48f9&#45;897a&#45;75aaeea25bd3</title>
<path fill="none" stroke="black" d="M381.48,-538.46C376.86,-524.25 368.91,-502.33 358.94,-484.83 353.05,-474.47 345.31,-463.92 338.14,-454.98"/>
<polygon fill="black" stroke="black" points="341.02,-452.97 331.95,-447.5 335.63,-457.43 341.02,-452.97"/>
</g>
<!-- 71c555ef&#45;e9eb&#45;430c&#45;ae3c&#45;40bf71a64d67 -->
<g id="node15" class="node">
<title>71c555ef&#45;e9eb&#45;430c&#45;ae3c&#45;40bf71a64d67</title>
<polygon fill="lightgreen" stroke="black" points="552.07,-448.83 353.82,-448.83 353.82,-412.83 552.07,-412.83 552.07,-448.83"/>
<text text-anchor="middle" x="452.94" y="-423.08" font-family="Times New Roman,serif" font-size="20.00">PickUp(agent&#45;0,key&#45;0)</text>
</g>
<!-- 96c5ab97&#45;444f&#45;446b&#45;bb93&#45;ea8cd28b81f1&#45;&gt;71c555ef&#45;e9eb&#45;430c&#45;ae3c&#45;40bf71a64d67 -->
<g id="edge14" class="edge">
<title>96c5ab97&#45;444f&#45;446b&#45;bb93&#45;ea8cd28b81f1&#45;&gt;71c555ef&#45;e9eb&#45;430c&#45;ae3c&#45;40bf71a64d67</title>
<path fill="none" stroke="black" d="M393.89,-538.73C404.75,-519.07 424.43,-483.45 438.07,-458.76"/>
<polygon fill="black" stroke="black" points="440.99,-460.7 442.77,-450.25 434.87,-457.31 440.99,-460.7"/>
</g>
<!-- e0a5e9f2&#45;cec7&#45;45e7&#45;b7d4&#45;ce6d076cb081 -->
<g id="node11" class="node">
<title>e0a5e9f2&#45;cec7&#45;45e7&#45;b7d4&#45;ce6d076cb081</title>
<ellipse fill="#ffff80" stroke="black" cx="208.94" cy="-291.62" rx="182.61" ry="85.21"/>
<text text-anchor="middle" x="208.94" y="-328.87" font-family="Times New Roman,serif" font-size="20.00">CanGoTo(door&#45;0) &amp;</text>
<text text-anchor="middle" x="208.94" y="-306.37" font-family="Times New Roman,serif" font-size="20.00"> IsClose(door&#45;0) &amp;</text>
<text text-anchor="middle" x="208.94" y="-283.87" font-family="Times New Roman,serif" font-size="20.00"> IsHandEmpty(agent&#45;0) &amp;</text>
<text text-anchor="middle" x="208.94" y="-261.37" font-family="Times New Roman,serif" font-size="20.00"> IsInRoom(agent&#45;0,room&#45;0) &amp;</text>
<text text-anchor="middle" x="208.94" y="-238.87" font-family="Times New Roman,serif" font-size="20.00"> IsNear(agent&#45;0,key&#45;0)</text>
</g>
<!-- aebb2f97&#45;818e&#45;48f9&#45;897a&#45;75aaeea25bd3&#45;&gt;e0a5e9f2&#45;cec7&#45;45e7&#45;b7d4&#45;ce6d076cb081 -->
<g id="edge10" class="edge">
<title>aebb2f97&#45;818e&#45;48f9&#45;897a&#45;75aaeea25bd3&#45;&gt;e0a5e9f2&#45;cec7&#45;45e7&#45;b7d4&#45;ce6d076cb081</title>
<path fill="none" stroke="black" d="M306.28,-415.14C299.21,-406.24 289.53,-394.06 279.01,-380.82"/>
<polygon fill="black" stroke="black" points="281.9,-378.83 272.94,-373.18 276.42,-383.18 281.9,-378.83"/>
</g>
<!-- de811f23&#45;be6d&#45;4244&#45;9392&#45;e9be0d33bfa9 -->
<g id="node12" class="node">
<title>de811f23&#45;be6d&#45;4244&#45;9392&#45;e9be0d33bfa9</title>
<polygon fill="#ff8080" stroke="black" points="446.07,-306.87 409.82,-306.87 409.82,-276.37 446.07,-276.37 446.07,-306.87"/>
<text text-anchor="middle" x="427.94" y="-283.87" font-family="Times New Roman,serif" font-size="20.00">→</text>
</g>
<!-- aebb2f97&#45;818e&#45;48f9&#45;897a&#45;75aaeea25bd3&#45;&gt;de811f23&#45;be6d&#45;4244&#45;9392&#45;e9be0d33bfa9 -->
<g id="edge11" class="edge">
<title>aebb2f97&#45;818e&#45;48f9&#45;897a&#45;75aaeea25bd3&#45;&gt;de811f23&#45;be6d&#45;4244&#45;9392&#45;e9be0d33bfa9</title>
<path fill="none" stroke="black" d="M335.79,-418.53C360.01,-403.19 400.36,-377.58 400.94,-376.83 414.04,-359.83 420.88,-336.3 424.4,-318.43"/>
<polygon fill="black" stroke="black" points="427.84,-319.05 426.08,-308.6 420.94,-317.87 427.84,-319.05"/>
</g>
<!-- bd862faf&#45;ca83&#45;4b98&#45;b227&#45;9e1c04829d19 -->
<g id="node13" class="node">
<title>bd862faf&#45;ca83&#45;4b98&#45;b227&#45;9e1c04829d19</title>
<ellipse fill="#ffff80" stroke="black" cx="256.94" cy="-85.21" rx="167.76" ry="85.21"/>
<text text-anchor="middle" x="256.94" y="-122.46" font-family="Times New Roman,serif" font-size="20.00">CanGoTo(door&#45;0) &amp;</text>
<text text-anchor="middle" x="256.94" y="-99.96" font-family="Times New Roman,serif" font-size="20.00"> CanGoTo(key&#45;0) &amp;</text>
<text text-anchor="middle" x="256.94" y="-77.46" font-family="Times New Roman,serif" font-size="20.00"> IsClose(door&#45;0) &amp;</text>
<text text-anchor="middle" x="256.94" y="-54.96" font-family="Times New Roman,serif" font-size="20.00"> IsHandEmpty(agent&#45;0) &amp;</text>
<text text-anchor="middle" x="256.94" y="-32.46" font-family="Times New Roman,serif" font-size="20.00"> IsInRoom(agent&#45;0,room&#45;0)</text>
</g>
<!-- de811f23&#45;be6d&#45;4244&#45;9392&#45;e9be0d33bfa9&#45;&gt;bd862faf&#45;ca83&#45;4b98&#45;b227&#45;9e1c04829d19 -->
<g id="edge12" class="edge">
<title>de811f23&#45;be6d&#45;4244&#45;9392&#45;e9be0d33bfa9&#45;&gt;bd862faf&#45;ca83&#45;4b98&#45;b227&#45;9e1c04829d19</title>
<path fill="none" stroke="black" d="M425.84,-276.14C422.73,-258.44 415.61,-228.19 400.94,-206.41 390.37,-190.72 377.18,-175.96 363.11,-162.52"/>
<polygon fill="black" stroke="black" points="365.56,-160.01 355.84,-155.78 360.8,-165.15 365.56,-160.01"/>
</g>
<!-- 8f655a4b&#45;c710&#45;4254&#45;a4d5&#45;1e483d392208 -->
<g id="node14" class="node">
<title>8f655a4b&#45;c710&#45;4254&#45;a4d5&#45;1e483d392208</title>
<polygon fill="lightgreen" stroke="black" points="755.07,-103.21 442.82,-103.21 442.82,-67.21 755.07,-67.21 755.07,-103.21"/>
<text text-anchor="middle" x="598.94" y="-77.46" font-family="Times New Roman,serif" font-size="20.00">GoToInRoom(agent&#45;0,key&#45;0,room&#45;0)</text>
</g>
<!-- de811f23&#45;be6d&#45;4244&#45;9392&#45;e9be0d33bfa9&#45;&gt;8f655a4b&#45;c710&#45;4254&#45;a4d5&#45;1e483d392208 -->
<g id="edge13" class="edge">
<title>de811f23&#45;be6d&#45;4244&#45;9392&#45;e9be0d33bfa9&#45;&gt;8f655a4b&#45;c710&#45;4254&#45;a4d5&#45;1e483d392208</title>
<path fill="none" stroke="black" d="M440.24,-275.92C468.98,-241.56 540.86,-155.64 577.19,-112.21"/>
<polygon fill="black" stroke="black" points="579.67,-114.69 583.41,-104.78 574.31,-110.2 579.67,-114.69"/>
</g>
</g>
</svg>
